<?xml version="1.0" encoding="utf-8"?>
<!-- Generator: Adobe Illustrator 25.0.1, SVG Export Plug-In . SVG Version: 6.00 Build 0)  -->
<svg version="1.1" id="Capa_1" xmlns="http://www.w3.org/2000/svg" xmlns:xlink="http://www.w3.org/1999/xlink" x="0px" y="0px"
	 viewBox="0 0 1200 300" style="enable-background:new 0 0 1200 300;" xml:space="preserve">
<style type="text/css">
	.st0{fill:#FFFFFF;}
	.st1{fill:#201E1E;}
</style>
<rect class="st0" width="1200" height="300"/>
<g>
	<path class="st1" d="M471.6,230.5v-21.2h-45.8l-10.1,21.2H471.6z M493.5,259.7h-21.9v-10.1h-65.1l-4.9,10.1h-23.9l34.8-69.6h80.9
		V259.7z"/>
	<g>
		<path class="st1" d="M596,237.5c0,12.2-8.8,22.3-25.1,22.3h-66.3v-19h66.3c1.7,0,3.1-1.5,3.1-3.2c0-1.7-1.4-3-3.1-3h-44.4
			c-16.3,0-25.1-10.1-25.1-22.5c0-12.2,8.8-22,25.1-22h66.3v19h-66.3c-1.7,0-3.1,1.2-3.1,2.9c0,1.7,1.4,3,3.1,3h44.4
			C587.2,215,596,225.1,596,237.5"/>
		<path class="st1" d="M676.1,217c0-4.3-3.5-7.7-7.7-7.7h-42.6v15.3h42.6C672.6,224.6,676.1,221.2,676.1,217 M697.9,217
			c0,14.8-11.7,26.9-29.5,26.9h-42.6v15.9h-21.9v-69.6h64.5C686.2,190.1,697.9,202.1,697.9,217"/>
	</g>
	<path class="st1" d="M783.7,230.5l-10.1-21.2h-45.8v21.2H783.7z M792.8,249.6h-65.1v10.1h-21.9v-69.6h80.9l34.8,69.6h-23.9
		L792.8,249.6z"/>
	<g>
		<path class="st0" d="M570.9,78.1v-2.3c0-1.3,1-2.3,2.3-2.3H587c1.3,0,2.3,1,2.3,2.3v2.3c0,1.3-1,2.3-2.3,2.3h-5.8h-8.1
			C571.9,80.4,570.9,79.4,570.9,78.1 M596.3,91.9h6.9c0-3.8,3.1-6.9,6.9-6.9h27.6c3.8,0,6.9,3.1,6.9,6.9v27.6c0,3.8-3.1,6.9-6.9,6.9
			h-27.6c-3.8,0-6.9-3.1-6.9-6.9v-23h-6.9v23c0,3.8-3.1,6.9-6.9,6.9h-27.6c-3.8,0-6.9-3.1-6.9-6.9V91.9c0-3.8,3.1-6.9,6.9-6.9h27.6
			C593.2,85,596.3,88.1,596.3,91.9 M599.7,66.6c1.3,0,2.3,1,2.3,2.3c0,1.3-1,2.3-2.3,2.3c-1.3,0-2.3-1-2.3-2.3
			C597.4,67.6,598.4,66.6,599.7,66.6 M610.1,75.8c0-1.3,1-2.3,2.3-2.3h13.8c1.3,0,2.3,1,2.3,2.3v2.3c0,1.3-1,2.3-2.3,2.3h-13.8
			c-1.3,0-2.3-1-2.3-2.3V75.8z M557.1,135.7h27.7c1.6-2.8,4.6-4.6,8-4.6h13.8c3.4,0,6.4,1.9,8,4.6h27.7c3.8,0,6.9-3.1,6.9-6.9v-25.3
			v-23l-5.6-5.6c-0.9-0.9-1.3-2-1.3-3.3v-7.3V62c0-3.8-3.1-6.9-6.9-6.9h-2.3h-18.4l-3.3,3.3c-0.9,0.9-2,1.3-3.3,1.3h-16.9
			c-1.2,0-2.4-0.5-3.3-1.3l-3.3-3.3H564h0c-3.8,0-6.9,3.1-6.9,6.9v2.3v7.3c0,1.2-0.5,2.4-1.3,3.3l-5.6,5.6v23v25.3
			C550.2,132.6,553.3,135.7,557.1,135.7"/>
		<path class="st0" d="M535.2,120.7c0,6.2,4.5,11.4,10.4,12.5v-4.4v-20.5C539.7,109.4,535.2,114.5,535.2,120.7"/>
		<path class="st1" d="M612.4,80.4h13.8c1.3,0,2.3-1,2.3-2.3v-2.3c0-1.3-1-2.3-2.3-2.3h-13.8c-1.3,0-2.3,1-2.3,2.3v2.3
			C610.1,79.4,611.1,80.4,612.4,80.4"/>
		<path class="st0" d="M653.8,108.3v20.5v4.4c5.9-1.1,10.4-6.3,10.4-12.5S659.7,109.4,653.8,108.3"/>
		<path class="st1" d="M653.8,133.2v-4.4v-20.5c5.9,1.1,10.4,6.3,10.4,12.5C664.2,126.9,659.7,132.1,653.8,133.2 M588.2,151.8v-11.5
			c0-2.5,2.1-4.6,4.6-4.6h13.8c2.5,0,4.6,2.1,4.6,4.6v11.5c0,1.3-1,2.3-2.3,2.3h-4.8c-0.5-1.3-1.8-2.3-3.3-2.3h-2.3
			c-1.5,0-2.8,1-3.3,2.3h-4.8C589.2,154.1,588.2,153.1,588.2,151.8 M550.2,80.4l5.6-5.6c0.9-0.9,1.3-2,1.3-3.3v-7.3V62
			c0-3.8,3.1-6.9,6.9-6.9h20.7l3.3,3.3c0.9,0.9,2,1.3,3.3,1.3h16.9c1.2,0,2.4-0.5,3.3-1.3l3.3-3.3h18.4h2.3c3.8,0,6.9,3.1,6.9,6.9
			v2.3v7.3c0,1.2,0.5,2.4,1.3,3.3l5.6,5.6v23v25.3c0,3.8-3.1,6.9-6.9,6.9h-27.7c-1.6-2.8-4.6-4.6-8-4.6h-13.8c-3.4,0-6.4,1.9-8,4.6
			h-27.7c-3.8,0-6.9-3.1-6.9-6.9v-25.3V80.4z M545.6,133.2c-5.9-1.1-10.4-6.3-10.4-12.5c0-6.2,4.5-11.4,10.4-12.5v20.5V133.2z
			 M668.8,120.7c0-8.7-6.5-16-15-17.1V55.1c0-14-11.4-25.3-25.3-25.3h-47.2h-10.4h-26.5c-7.6,0-13.8,6.2-13.8,13.8
			c0,4.8,2.5,9,6.2,11.5c-3.7,2.5-6.2,6.7-6.2,11.5c0,7.6,6.2,13.8,13.8,13.8h1.2v23.2c-8.4,1.1-15,8.4-15,17.1
			c0,8.9,6.7,16.2,15.4,17.2c2.1,11.8,12.5,20.8,24.9,20.8h19.6h8.1h2.3h8.1h19.6c12.4,0,22.8-9,24.9-20.8
			C662.1,137,668.8,129.6,668.8,120.7"/>
		<path class="st0" d="M619.3,103.5c3.8,0,6.9,3.1,6.9,6.9s-3.1,6.9-6.9,6.9c-3.8,0-6.9-3.1-6.9-6.9S615.5,103.5,619.3,103.5
			 M610.1,121.9h27.6c1.3,0,2.3-1,2.3-2.3V91.9c0-1.3-1-2.3-2.3-2.3h-27.6c-1.3,0-2.3,1-2.3,2.3v27.6
			C607.8,120.9,608.8,121.9,610.1,121.9"/>
		<path class="st0" d="M580.1,117.3c-3.8,0-6.9-3.1-6.9-6.9s3.1-6.9,6.9-6.9c3.8,0,6.9,3.1,6.9,6.9S583.9,117.3,580.1,117.3
			 M589.3,89.6h-27.6c-1.3,0-2.3,1-2.3,2.3v27.6c0,1.3,1,2.3,2.3,2.3h27.6c1.3,0,2.3-1,2.3-2.3V91.9
			C591.6,90.7,590.6,89.6,589.3,89.6"/>
		<path class="st1" d="M607.8,91.9c0-1.3,1-2.3,2.3-2.3h27.6c1.3,0,2.3,1,2.3,2.3v27.6c0,1.3-1,2.3-2.3,2.3h-27.6
			c-1.3,0-2.3-1-2.3-2.3V91.9z M591.6,119.6c0,1.3-1,2.3-2.3,2.3h-27.6c-1.3,0-2.3-1-2.3-2.3V91.9c0-1.3,1-2.3,2.3-2.3h27.6
			c1.3,0,2.3,1,2.3,2.3V119.6z M561.7,85c-3.8,0-6.9,3.1-6.9,6.9v27.6c0,3.8,3.1,6.9,6.9,6.9h27.6c3.8,0,6.9-3.1,6.9-6.9v-23h6.9v23
			c0,3.8,3.1,6.9,6.9,6.9h27.6c3.8,0,6.9-3.1,6.9-6.9V91.9c0-3.8-3.1-6.9-6.9-6.9h-27.6c-3.8,0-6.9,3.1-6.9,6.9h-6.9
			c0-3.8-3.1-6.9-6.9-6.9H561.7z"/>
		<path class="st0" d="M591.2,141.9c0.9-0.9,2.4-0.9,3.3,0c2.9,2.9,7.7,2.9,10.6,0c0.9-0.9,2.4-0.9,3.3,0c0.9,0.9,0.9,2.4,0,3.3
			c-2.4,2.4-5.4,3.5-8.5,3.5c-3.1,0-6.2-1.2-8.5-3.5C590.3,144.2,590.3,142.8,591.2,141.9 M598.6,151.8h2.3c1.5,0,2.8,1,3.3,2.3h4.8
			c1.3,0,2.3-1,2.3-2.3v-11.5c0-2.5-2.1-4.6-4.6-4.6h-13.8c-2.5,0-4.6,2.1-4.6,4.6v11.5c0,1.3,1,2.3,2.3,2.3h4.8
			C595.8,152.8,597.1,151.8,598.6,151.8"/>
		<path class="st1" d="M580.1,103.5c-3.8,0-6.9,3.1-6.9,6.9c0,3.8,3.1,6.9,6.9,6.9c3.8,0,6.9-3.1,6.9-6.9
			C587,106.5,583.9,103.5,580.1,103.5"/>
		<path class="st1" d="M619.3,117.3c3.8,0,6.9-3.1,6.9-6.9c0-3.8-3.1-6.9-6.9-6.9c-3.8,0-6.9,3.1-6.9,6.9
			C612.4,114.2,615.5,117.3,619.3,117.3"/>
		<path class="st1" d="M599.7,148.6c3.1,0,6.2-1.2,8.5-3.5c0.9-0.9,0.9-2.4,0-3.3c-0.9-0.9-2.4-0.9-3.3,0c-2.9,2.9-7.7,2.9-10.6,0
			c-0.9-0.9-2.4-0.9-3.3,0c-0.9,0.9-0.9,2.4,0,3.3C593.5,147.5,596.6,148.6,599.7,148.6"/>
		<path class="st1" d="M599.7,71.2c1.3,0,2.3-1,2.3-2.3c0-1.3-1-2.3-2.3-2.3c-1.3,0-2.3,1-2.3,2.3C597.4,70.2,598.4,71.2,599.7,71.2
			"/>
		<path class="st1" d="M587,80.4c1.3,0,2.3-1,2.3-2.3v-2.3c0-1.3-1-2.3-2.3-2.3h-13.8c-1.3,0-2.3,1-2.3,2.3v2.3c0,1.3,1,2.3,2.3,2.3
			h8.1H587z"/>
	</g>
</g>
<g>
	<path class="st1" d="M703.9,542.1v-21.2h-45.8L648,542.1H703.9z M725.8,571.3h-21.9v-10.1h-65.1l-4.9,10.1h-23.9l34.8-69.6h80.9
		V571.3z"/>
	<g>
		<path class="st1" d="M828.2,549c0,12.2-8.8,22.3-25.1,22.3h-66.3v-19h66.3c1.7,0,3.1-1.5,3.1-3.2c0-1.7-1.4-3-3.1-3h-44.4
			c-16.3,0-25.1-10.1-25.1-22.5c0-12.2,8.8-22,25.1-22h66.3v19h-66.3c-1.7,0-3.1,1.2-3.1,2.9c0,1.7,1.4,3,3.1,3h44.4
			C819.5,526.5,828.2,536.7,828.2,549"/>
		<path class="st1" d="M908.3,528.5c0-4.3-3.5-7.7-7.7-7.7h-42.6v15.3h42.6C904.8,536.2,908.3,532.8,908.3,528.5 M930.2,528.5
			c0,14.8-11.7,26.9-29.5,26.9h-42.6v15.9h-21.9v-69.6h64.5C918.4,501.7,930.2,513.7,930.2,528.5"/>
	</g>
	<path class="st1" d="M1015.9,542.1l-10.1-21.2H960v21.2H1015.9z M1025.1,561.2H960v10.1h-21.9v-69.6h80.9l34.8,69.6H1030
		L1025.1,561.2z"/>
	<g>
		<path class="st0" d="M803.2,389.7v-2.3c0-1.3,1-2.3,2.3-2.3h13.8c1.3,0,2.3,1,2.3,2.3v2.3c0,1.3-1,2.3-2.3,2.3h-5.8h-8.1
			C804.2,392,803.2,391,803.2,389.7 M828.5,403.5h6.9c0-3.8,3.1-6.9,6.9-6.9H870c3.8,0,6.9,3.1,6.9,6.9v27.6c0,3.8-3.1,6.9-6.9,6.9
			h-27.6c-3.8,0-6.9-3.1-6.9-6.9v-23h-6.9v23c0,3.8-3.1,6.9-6.9,6.9h-27.6c-3.8,0-6.9-3.1-6.9-6.9v-27.6c0-3.8,3.1-6.9,6.9-6.9h27.6
			C825.4,396.6,828.5,399.7,828.5,403.5 M832,378.2c1.3,0,2.3,1,2.3,2.3c0,1.3-1,2.3-2.3,2.3c-1.3,0-2.3-1-2.3-2.3
			C829.6,379.2,830.7,378.2,832,378.2 M842.3,387.4c0-1.3,1-2.3,2.3-2.3h13.8c1.3,0,2.3,1,2.3,2.3v2.3c0,1.3-1,2.3-2.3,2.3h-13.8
			c-1.3,0-2.3-1-2.3-2.3V387.4z M789.3,447.3h27.7c1.6-2.8,4.6-4.6,8-4.6h13.8c3.4,0,6.4,1.9,8,4.6h27.7c3.8,0,6.9-3.1,6.9-6.9V415
			v-23l-5.6-5.6c-0.9-0.9-1.3-2-1.3-3.3v-7.3v-2.3c0-3.8-3.1-6.9-6.9-6.9h-2.3h-18.4l-3.3,3.3c-0.9,0.9-2,1.3-3.3,1.3h-16.9
			c-1.2,0-2.4-0.5-3.3-1.3l-3.3-3.3h-20.7h0c-3.8,0-6.9,3.1-6.9,6.9v2.3v7.3c0,1.2-0.5,2.4-1.3,3.3l-5.6,5.6v23v25.3
			C782.4,444.2,785.5,447.3,789.3,447.3"/>
		<path class="st0" d="M767.5,432.3c0,6.2,4.5,11.4,10.4,12.5v-4.4v-20.5C771.9,420.9,767.5,426.1,767.5,432.3"/>
		<path class="st1" d="M844.6,392h13.8c1.3,0,2.3-1,2.3-2.3v-2.3c0-1.3-1-2.3-2.3-2.3h-13.8c-1.3,0-2.3,1-2.3,2.3v2.3
			C842.3,391,843.3,392,844.6,392"/>
		<path class="st0" d="M886.1,419.8v20.5v4.4c5.9-1.1,10.4-6.3,10.4-12.5C896.5,426.1,892,420.9,886.1,419.8"/>
		<path class="st1" d="M886.1,444.8v-4.4v-20.5c5.9,1.1,10.4,6.3,10.4,12.5C896.5,438.5,892,443.7,886.1,444.8 M820.4,463.4v-11.5
			c0-2.5,2.1-4.6,4.6-4.6h13.8c2.5,0,4.6,2.1,4.6,4.6v11.5c0,1.3-1,2.3-2.3,2.3h-4.8c-0.5-1.3-1.8-2.3-3.3-2.3h-2.3
			c-1.5,0-2.8,1-3.3,2.3h-4.8C821.5,465.7,820.4,464.7,820.4,463.4 M782.4,392l5.6-5.6c0.9-0.9,1.3-2,1.3-3.3v-7.3v-2.3
			c0-3.8,3.1-6.9,6.9-6.9H817l3.3,3.3c0.9,0.9,2,1.3,3.3,1.3h16.9c1.2,0,2.4-0.5,3.3-1.3l3.3-3.3h18.4h2.3c3.8,0,6.9,3.1,6.9,6.9
			v2.3v7.3c0,1.2,0.5,2.4,1.3,3.3l5.6,5.6v23v25.3c0,3.8-3.1,6.9-6.9,6.9h-27.7c-1.6-2.8-4.6-4.6-8-4.6H825c-3.4,0-6.4,1.9-8,4.6
			h-27.7c-3.8,0-6.9-3.1-6.9-6.9V415V392z M777.8,444.8c-5.9-1.1-10.4-6.3-10.4-12.5c0-6.2,4.5-11.4,10.4-12.5v20.5V444.8z
			 M901.1,432.3c0-8.7-6.5-16-15-17.1v-48.5c0-14-11.4-25.3-25.3-25.3h-47.2h-10.4h-26.5c-7.6,0-13.8,6.2-13.8,13.8
			c0,4.8,2.5,9,6.2,11.5c-3.7,2.5-6.2,6.7-6.2,11.5c0,7.6,6.2,13.8,13.8,13.8h1.2v23.2c-8.4,1.1-15,8.4-15,17.1
			c0,8.9,6.7,16.2,15.4,17.2c2.1,11.8,12.5,20.8,24.9,20.8h19.6h8.1h2.3h8.1h19.6c12.4,0,22.8-9,24.9-20.8
			C894.3,448.5,901.1,441.2,901.1,432.3"/>
		<path class="st0" d="M851.5,415c3.8,0,6.9,3.1,6.9,6.9c0,3.8-3.1,6.9-6.9,6.9c-3.8,0-6.9-3.1-6.9-6.9
			C844.6,418.1,847.7,415,851.5,415 M842.3,433.5H870c1.3,0,2.3-1,2.3-2.3v-27.6c0-1.3-1-2.3-2.3-2.3h-27.6c-1.3,0-2.3,1-2.3,2.3
			v27.6C840,432.4,841,433.5,842.3,433.5"/>
		<path class="st0" d="M812.4,428.8c-3.8,0-6.9-3.1-6.9-6.9c0-3.8,3.1-6.9,6.9-6.9c3.8,0,6.9,3.1,6.9,6.9
			C819.3,425.8,816.2,428.8,812.4,428.8 M821.6,401.2h-27.6c-1.3,0-2.3,1-2.3,2.3v27.6c0,1.3,1,2.3,2.3,2.3h27.6
			c1.3,0,2.3-1,2.3-2.3v-27.6C823.9,402.2,822.9,401.2,821.6,401.2"/>
		<path class="st1" d="M840,403.5c0-1.3,1-2.3,2.3-2.3H870c1.3,0,2.3,1,2.3,2.3v27.6c0,1.3-1,2.3-2.3,2.3h-27.6
			c-1.3,0-2.3-1-2.3-2.3V403.5z M823.9,431.2c0,1.3-1,2.3-2.3,2.3h-27.6c-1.3,0-2.3-1-2.3-2.3v-27.6c0-1.3,1-2.3,2.3-2.3h27.6
			c1.3,0,2.3,1,2.3,2.3V431.2z M793.9,396.6c-3.8,0-6.9,3.1-6.9,6.9v27.6c0,3.8,3.1,6.9,6.9,6.9h27.6c3.8,0,6.9-3.1,6.9-6.9v-23h6.9
			v23c0,3.8,3.1,6.9,6.9,6.9H870c3.8,0,6.9-3.1,6.9-6.9v-27.6c0-3.8-3.1-6.9-6.9-6.9h-27.6c-3.8,0-6.9,3.1-6.9,6.9h-6.9
			c0-3.8-3.1-6.9-6.9-6.9H793.9z"/>
		<path class="st0" d="M823.4,453.4c0.9-0.9,2.4-0.9,3.3,0c2.9,2.9,7.7,2.9,10.6,0c0.9-0.9,2.4-0.9,3.3,0c0.9,0.9,0.9,2.4,0,3.3
			c-2.4,2.4-5.4,3.5-8.5,3.5c-3.1,0-6.2-1.2-8.5-3.5C822.5,455.8,822.5,454.3,823.4,453.4 M830.8,463.4h2.3c1.5,0,2.8,1,3.3,2.3h4.8
			c1.3,0,2.3-1,2.3-2.3v-11.5c0-2.5-2.1-4.6-4.6-4.6H825c-2.5,0-4.6,2.1-4.6,4.6v11.5c0,1.3,1,2.3,2.3,2.3h4.8
			C828,464.4,829.3,463.4,830.8,463.4"/>
		<path class="st1" d="M812.4,415c-3.8,0-6.9,3.1-6.9,6.9c0,3.8,3.1,6.9,6.9,6.9c3.8,0,6.9-3.1,6.9-6.9
			C819.3,418.1,816.2,415,812.4,415"/>
		<path class="st1" d="M851.5,428.8c3.8,0,6.9-3.1,6.9-6.9c0-3.8-3.1-6.9-6.9-6.9c-3.8,0-6.9,3.1-6.9,6.9
			C844.6,425.8,847.7,428.8,851.5,428.8"/>
		<path class="st1" d="M832,460.2c3.1,0,6.2-1.2,8.5-3.5c0.9-0.9,0.9-2.4,0-3.3c-0.9-0.9-2.4-0.9-3.3,0c-2.9,2.9-7.7,2.9-10.6,0
			c-0.9-0.9-2.4-0.9-3.3,0c-0.9,0.9-0.9,2.4,0,3.3C825.8,459,828.9,460.2,832,460.2"/>
		<path class="st1" d="M832,382.8c1.3,0,2.3-1,2.3-2.3c0-1.3-1-2.3-2.3-2.3c-1.3,0-2.3,1-2.3,2.3C829.6,381.7,830.7,382.8,832,382.8
			"/>
		<path class="st1" d="M819.3,392c1.3,0,2.3-1,2.3-2.3v-2.3c0-1.3-1-2.3-2.3-2.3h-13.8c-1.3,0-2.3,1-2.3,2.3v2.3
			c0,1.3,1,2.3,2.3,2.3h8.1H819.3z"/>
	</g>
</g>
<g>
	<path class="st1" d="M938.1,236.6h4.1v6.7c0.8-0.7,1.8-1.3,3.3-1.3c2.3,0,4.5,1.6,4.5,4.5v8.3H946v-7.3c0-1.1-0.7-1.8-1.7-1.8
		c-0.8,0-1.5,0.4-2,1.1v7.9h-4.1V236.6z"/>
	<path class="st1" d="M951.8,248.6c0-3.7,2.7-6.6,6.9-6.6c4.1,0,6.9,2.9,6.9,6.6c0,3.7-2.7,6.6-6.9,6.6
		C954.5,255.2,951.8,252.3,951.8,248.6z M961.2,248.6c0-1.6-1.1-2.7-2.6-2.7c-1.5,0-2.6,1.1-2.6,2.7c0,1.6,1.1,2.7,2.6,2.7
		C960.1,251.3,961.2,250.2,961.2,248.6z"/>
	<path class="st1" d="M967.2,236.6h4.1v18.2h-4.1V236.6z"/>
	<path class="st1" d="M973.1,251c0-2.5,2.1-3.9,4.5-3.9c1.4,0,2.1,0.4,2.9,0.8v-0.6c0-0.8-0.5-1.6-2.1-1.6c-1.8,0-3.4,0.7-4.6,1.5
		v-4c1.3-0.6,3.3-1.1,5.1-1.1c3.6,0,5.8,2.1,5.8,4.4v8.4h-3.8v-0.7c-0.7,0.6-1.9,1.1-3.5,1.1C975,255.2,973.1,253.7,973.1,251z
		 M980.6,251.4v-1.1c-0.4-0.4-1.1-0.7-1.9-0.7c-0.8,0-1.6,0.5-1.6,1.2c0,0.9,0.8,1.3,1.6,1.3C979.5,252.1,980.2,251.8,980.6,251.4z"
		/>
	<path class="st1" d="M1000.4,250.8c-0.1,0.7,0.2,1.2,1,1.2c1.5,0,2.2-1.6,2.2-4.1c0-3.3-2.5-6.2-6.9-6.2c-4.4,0-7.5,3.5-7.5,7.8
		c0,4.5,2.6,7.7,7.7,7.7c1.6,0,3.2-0.3,4.6-0.9v2.7c-1.2,0.5-2.8,0.8-4.6,0.8c-6,0-10.5-3.6-10.5-10.3c0-5.8,4.4-10.3,10.2-10.3
		c5.6,0,9.6,4,9.6,8.7c0,3.7-2.2,6.5-5.4,6.5c-1.3,0-2.1-0.5-2.6-1.3c-0.9,0.8-2,1.4-3.2,1.4c-2.5,0-3.8-1.7-3.8-4.2
		c-0.1-3.4,2.2-6,4.8-6c1.3,0,2.1,0.6,2.6,1.3l0.2-1h2.7L1000.4,250.8z M997.7,250.6l0.5-2.7c-0.3-0.8-1-1.3-1.8-1.3
		c-1.6,0-2.6,1.7-2.6,3.6c0,1.3,0.8,2,1.7,2C996.6,252.2,997.4,251.4,997.7,250.6z"/>
	<path class="st1" d="M1007.6,251c0-2.5,2.1-3.9,4.5-3.9c1.4,0,2.1,0.4,2.9,0.8v-0.6c0-0.8-0.5-1.6-2.1-1.6c-1.8,0-3.4,0.7-4.6,1.5
		v-4c1.3-0.6,3.3-1.1,5.1-1.1c3.6,0,5.8,2.1,5.8,4.4v8.4h-3.8v-0.7c-0.7,0.6-1.9,1.1-3.5,1.1C1009.4,255.2,1007.6,253.7,1007.6,251z
		 M1015,251.4v-1.1c-0.4-0.4-1.1-0.7-1.9-0.7c-0.8,0-1.6,0.5-1.6,1.2c0,0.9,0.8,1.3,1.6,1.3C1013.9,252.1,1014.6,251.8,1015,251.4z"
		/>
	<path class="st1" d="M1021.1,254.4v-3.9c1.5,0.7,3.3,1.1,4.4,1.1c0.8,0,1.2-0.2,1.2-0.6c0-0.3-0.2-0.6-0.9-0.7l-1.1-0.2
		c-1.9-0.3-3.7-1.2-3.7-3.8c0-2.2,1.6-4.2,5.3-4.2c1.5,0,3.1,0.4,4.1,0.8v3.7c-1.2-0.5-2.8-0.9-4.1-0.9c-0.9,0-1.2,0.2-1.2,0.6
		s0.4,0.5,1,0.6l1.1,0.2c2.7,0.5,3.9,1.6,3.9,3.9c0,2.4-1.8,4.3-5.6,4.3C1023.7,255.2,1022.1,254.7,1021.1,254.4z"/>
	<path class="st1" d="M1033,242.4h4.1v0.7c0.8-0.6,2-1.1,3.2-1.1c3.5,0,5.8,3,5.8,6.6c0,3.5-2.2,6.6-5.8,6.6c-1.2,0-2.3-0.4-3.2-1.1
		v5.5h-4.1V242.4z M1041.9,248.6c0-1.7-1.2-2.7-2.5-2.7c-0.8,0-1.5,0.3-2.2,1v3.4c0.6,0.7,1.4,1,2.2,1
		C1040.7,251.3,1041.9,250.2,1041.9,248.6z"/>
	<path class="st1" d="M1047.5,251c0-2.5,2.1-3.9,4.5-3.9c1.4,0,2.1,0.4,2.9,0.8v-0.6c0-0.8-0.5-1.6-2.1-1.6c-1.8,0-3.4,0.7-4.6,1.5
		v-4c1.3-0.6,3.3-1.1,5.1-1.1c3.6,0,5.8,2.1,5.8,4.4v8.4h-3.8v-0.7c-0.7,0.6-1.9,1.1-3.5,1.1C1049.3,255.2,1047.5,253.7,1047.5,251z
		 M1054.9,251.4v-1.1c-0.4-0.4-1.1-0.7-1.9-0.7c-0.8,0-1.6,0.5-1.6,1.2c0,0.9,0.8,1.3,1.6,1.3
		C1053.8,252.1,1054.5,251.8,1054.9,251.4z"/>
	<path class="st1" d="M1074.4,248.6c0,3.6-2.2,6.6-5.8,6.6c-1.2,0-2.4-0.5-3.2-1.1v0.7h-4.1v-18.2h4.1v6.5c0.9-0.8,2-1.1,3.2-1.1
		C1072.2,242,1074.4,245,1074.4,248.6z M1070.2,248.6c0-1.6-1.1-2.7-2.5-2.7c-0.8,0-1.5,0.3-2.2,1v3.4c0.6,0.7,1.4,1,2.2,1
		C1069,251.3,1070.2,250.3,1070.2,248.6z"/>
	<path class="st1" d="M1075.7,248.6c0-3.7,2.7-6.6,6.9-6.6c4.1,0,6.9,2.9,6.9,6.6c0,3.7-2.7,6.6-6.9,6.6
		C1078.4,255.2,1075.7,252.3,1075.7,248.6z M1085.1,248.6c0-1.6-1.1-2.7-2.6-2.7c-1.5,0-2.6,1.1-2.6,2.7c0,1.6,1.1,2.7,2.6,2.7
		C1084.1,251.3,1085.1,250.2,1085.1,248.6z"/>
	<path class="st1" d="M1092.3,250.9v-5.1h-2v-3.4h2.1v-3.2l4-1.3v4.5h2.7v3.4h-2.7v4c0,1.1,0.5,1.6,1.7,1.6c0.4,0,0.7-0.1,1-0.1v3.6
		c-0.4,0.1-1.4,0.3-2.3,0.3C1094.5,255.2,1092.3,254.1,1092.3,250.9z"/>
	<path class="st1" d="M1100.7,252.5c0-1.4,1.1-2.5,2.5-2.5c1.5,0,2.5,1.1,2.5,2.5c0,1.4-1.1,2.4-2.5,2.4
		C1101.8,254.9,1100.7,253.9,1100.7,252.5z"/>
	<path class="st1" d="M1111.6,248.6c0,1.8,1.2,2.7,2.8,2.7c1.3,0,2.3-0.4,3.5-1.2v4.2c-0.9,0.4-2.1,0.9-3.8,0.9
		c-3.9,0-6.8-2.7-6.8-6.6s2.9-6.6,6.8-6.6c1.6,0,2.9,0.4,3.8,0.9v4.2c-1.2-0.8-2.2-1.2-3.5-1.2
		C1112.8,245.9,1111.6,246.9,1111.6,248.6z"/>
	<path class="st1" d="M1119.6,248.6c0-3.7,2.7-6.6,6.9-6.6c4.1,0,6.9,2.9,6.9,6.6c0,3.7-2.7,6.6-6.9,6.6
		C1122.3,255.2,1119.6,252.3,1119.6,248.6z M1129,248.6c0-1.6-1.1-2.7-2.6-2.7c-1.5,0-2.6,1.1-2.6,2.7c0,1.6,1.1,2.7,2.6,2.7
		C1127.9,251.3,1129,250.2,1129,248.6z"/>
	<path class="st1" d="M1154.1,246.5v8.3h-4.1v-7.3c0-1.1-0.6-1.8-1.6-1.8c-0.7,0-1.3,0.5-1.7,1.1v8h-4.1v-7.3c0-1.1-0.6-1.8-1.6-1.8
		c-0.8,0-1.3,0.5-1.7,1.1v7.9h-4.1v-12.4h4.1v0.9c0.6-0.8,1.6-1.3,3.1-1.3c1.5,0,2.8,0.7,3.6,1.8c0.6-0.8,1.8-1.8,3.7-1.8
		C1152,242,1154.1,243.6,1154.1,246.5z"/>
</g>
</svg>
