<?xml version="1.0" encoding="utf-8"?>
<!-- Generator: Adobe Illustrator 25.0.1, SVG Export Plug-In . SVG Version: 6.00 Build 0)  -->
<svg version="1.1" id="Capa_1" xmlns="http://www.w3.org/2000/svg" xmlns:xlink="http://www.w3.org/1999/xlink" x="0px" y="0px"
	 viewBox="0 0 100 100" style="enable-background:new 0 0 100 100;" xml:space="preserve">
<style type="text/css">
	.st0{fill:#FFFFFF;}
	.st1{fill:#201E1E;}
</style>
<path class="st0" d="M29.4,38.42v-1.67c0-0.92,0.75-1.67,1.67-1.67h10c0.92,0,1.67,0.75,1.67,1.67v1.67c0,0.92-0.75,1.67-1.67,1.67
	H36.9h-5.83C30.14,40.09,29.4,39.34,29.4,38.42 M47.73,48.42h5c0-2.76,2.24-5,5-5h20c2.76,0,5,2.24,5,5v20c0,2.76-2.24,5-5,5h-20
	c-2.76,0-5-2.24-5-5V51.75h-5v16.67c0,2.76-2.24,5-5,5h-20c-2.76,0-5-2.24-5-5v-20c0-2.76,2.24-5,5-5h20
	C45.49,43.42,47.73,45.66,47.73,48.42 M50.23,30.09c0.92,0,1.67,0.75,1.67,1.67c0,0.92-0.75,1.67-1.67,1.67
	c-0.92,0-1.67-0.75-1.67-1.67C48.56,30.83,49.31,30.09,50.23,30.09 M57.73,36.75c0-0.92,0.75-1.67,1.67-1.67h10
	c0.92,0,1.67,0.75,1.67,1.67v1.67c0,0.92-0.75,1.67-1.67,1.67h-10c-0.92,0-1.67-0.75-1.67-1.67V36.75z M19.4,80.09h20.06
	c1.15-1.99,3.31-3.33,5.77-3.33h10c2.46,0,4.62,1.34,5.77,3.33h20.06c2.76,0,5-2.24,5-5V56.75V40.09l-4.02-4.02
	c-0.63-0.63-0.98-1.47-0.98-2.36v-5.29v-1.67c0-2.76-2.24-5-5-5H74.4H61.06l-2.36,2.36c-0.63,0.63-1.47,0.98-2.36,0.98H44.11
	c-0.88,0-1.73-0.35-2.36-0.98l-2.36-2.36h-15h0c-2.76,0-5,2.24-5,5v1.67v5.29c0,0.88-0.35,1.73-0.98,2.36l-4.02,4.02v16.67v18.33
	C14.4,77.84,16.64,80.09,19.4,80.09"/>
<path class="st0" d="M3.56,69.25c0,4.49,3.24,8.23,7.5,9.01v-3.18V60.24C6.8,61.02,3.56,64.77,3.56,69.25"/>
<path class="st1" d="M59.4,40.09h10c0.92,0,1.67-0.75,1.67-1.67v-1.67c0-0.92-0.75-1.67-1.67-1.67h-10c-0.92,0-1.67,0.75-1.67,1.67
	v1.67C57.73,39.34,58.48,40.09,59.4,40.09"/>
<path class="st0" d="M89.4,60.24v14.85v3.18c4.26-0.79,7.5-4.53,7.5-9.01C96.9,64.77,93.66,61.02,89.4,60.24"/>
<path class="st1" d="M89.4,78.27v-3.18V60.24c4.26,0.79,7.5,4.53,7.5,9.01C96.9,73.74,93.66,77.48,89.4,78.27 M41.9,91.75v-8.33
	c0-1.84,1.5-3.33,3.33-3.33h10c1.84,0,3.33,1.5,3.33,3.33v8.33c0,0.92-0.75,1.67-1.67,1.67h-3.48c-0.34-0.97-1.27-1.67-2.35-1.67
	H49.4c-1.09,0-2.01,0.7-2.35,1.67h-3.48C42.64,93.42,41.9,92.67,41.9,91.75 M14.4,40.09l4.02-4.02c0.63-0.63,0.98-1.47,0.98-2.36
	v-5.29v-1.67c0-2.76,2.24-5,5-5h15l2.36,2.36c0.63,0.63,1.47,0.98,2.36,0.98h12.24c0.88,0,1.73-0.35,2.36-0.98l2.36-2.36H74.4h1.67
	c2.76,0,5,2.24,5,5v1.67v5.29c0,0.88,0.35,1.73,0.98,2.36l4.02,4.02v16.67v18.33c0,2.76-2.24,5-5,5H61
	c-1.15-1.99-3.31-3.33-5.77-3.33h-10c-2.46,0-4.62,1.34-5.77,3.33H19.4c-2.76,0-5-2.24-5-5V56.75V40.09z M11.06,78.27
	c-4.26-0.79-7.5-4.53-7.5-9.01c0-4.49,3.24-8.23,7.5-9.01v14.85V78.27z M100.23,69.25c0-6.33-4.73-11.57-10.83-12.39V21.75
	c0-10.11-8.22-18.33-18.33-18.33H36.9h-7.5H10.23c-5.51,0-10,4.49-10,10c0,3.47,1.78,6.54,4.48,8.33c-2.7,1.79-4.48,4.86-4.48,8.33
	c0,5.51,4.49,10,10,10h0.83v16.78C4.96,57.68,0.23,62.93,0.23,69.25c0,6.43,4.88,11.73,11.12,12.42
	c1.54,8.56,9.05,15.08,18.04,15.08h14.17h5.83h1.67h5.83h14.17c9,0,16.5-6.52,18.04-15.08C95.35,80.99,100.23,75.68,100.23,69.25"/>
<path class="st0" d="M64.4,56.75c2.76,0,5,2.24,5,5c0,2.76-2.24,5-5,5c-2.76,0-5-2.24-5-5C59.4,58.99,61.63,56.75,64.4,56.75
	 M57.73,70.09h20c0.92,0,1.67-0.75,1.67-1.67v-20c0-0.92-0.75-1.67-1.67-1.67h-20c-0.92,0-1.67,0.75-1.67,1.67v20
	C56.06,69.34,56.81,70.09,57.73,70.09"/>
<path class="st0" d="M36.06,66.75c-2.76,0-5-2.24-5-5c0-2.76,2.24-5,5-5c2.76,0,5,2.24,5,5C41.06,64.51,38.82,66.75,36.06,66.75
	 M42.73,46.75h-20c-0.92,0-1.67,0.75-1.67,1.67v20c0,0.92,0.75,1.67,1.67,1.67h20c0.92,0,1.67-0.75,1.67-1.67v-20
	C44.4,47.5,43.65,46.75,42.73,46.75"/>
<path class="st1" d="M56.06,48.42c0-0.92,0.75-1.67,1.67-1.67h20c0.92,0,1.67,0.75,1.67,1.67v20c0,0.92-0.75,1.67-1.67,1.67h-20
	c-0.92,0-1.67-0.75-1.67-1.67V48.42z M44.4,68.42c0,0.92-0.75,1.67-1.67,1.67h-20c-0.92,0-1.67-0.75-1.67-1.67v-20
	c0-0.92,0.75-1.67,1.67-1.67h20c0.92,0,1.67,0.75,1.67,1.67V68.42z M22.73,43.42c-2.76,0-5,2.24-5,5v20c0,2.76,2.24,5,5,5h20
	c2.76,0,5-2.24,5-5V51.75h5v16.67c0,2.76,2.24,5,5,5h20c2.76,0,5-2.24,5-5v-20c0-2.76-2.24-5-5-5h-20c-2.76,0-5,2.24-5,5h-5
	c0-2.76-2.24-5-5-5H22.73z"/>
<path class="st0" d="M44.05,84.54c0.65-0.65,1.71-0.65,2.36,0c2.11,2.11,5.54,2.11,7.64,0c0.65-0.65,1.71-0.65,2.36,0
	c0.65,0.65,0.65,1.71,0,2.36c-1.7,1.7-3.94,2.56-6.18,2.56c-2.24,0-4.48-0.85-6.18-2.56C43.4,86.24,43.4,85.19,44.05,84.54
	 M49.4,91.75h1.67c1.09,0,2.01,0.7,2.35,1.67h3.48c0.92,0,1.67-0.75,1.67-1.67v-8.33c0-1.84-1.5-3.33-3.33-3.33h-10
	c-1.84,0-3.33,1.5-3.33,3.33v8.33c0,0.92,0.75,1.67,1.67,1.67h3.48C47.39,92.45,48.31,91.75,49.4,91.75"/>
<path class="st1" d="M36.06,56.75c-2.76,0-5,2.24-5,5c0,2.76,2.24,5,5,5c2.76,0,5-2.24,5-5C41.06,58.99,38.82,56.75,36.06,56.75"/>
<path class="st1" d="M64.4,66.75c2.76,0,5-2.24,5-5c0-2.76-2.24-5-5-5c-2.76,0-5,2.24-5,5C59.4,64.51,61.63,66.75,64.4,66.75"/>
<path class="st1" d="M50.23,89.45c2.24,0,4.48-0.85,6.18-2.56c0.65-0.65,0.65-1.71,0-2.36c-0.65-0.65-1.71-0.65-2.36,0
	c-2.11,2.11-5.54,2.11-7.64,0c-0.65-0.65-1.71-0.65-2.36,0c-0.65,0.65-0.65,1.71,0,2.36C45.75,88.6,47.99,89.45,50.23,89.45"/>
<path class="st1" d="M50.23,33.42c0.92,0,1.67-0.75,1.67-1.67c0-0.92-0.75-1.67-1.67-1.67c-0.92,0-1.67,0.75-1.67,1.67
	C48.56,32.67,49.31,33.42,50.23,33.42"/>
<path class="st1" d="M41.06,40.09c0.92,0,1.67-0.75,1.67-1.67v-1.67c0-0.92-0.75-1.67-1.67-1.67h-10c-0.92,0-1.67,0.75-1.67,1.67
	v1.67c0,0.92,0.75,1.67,1.67,1.67h5.83H41.06z"/>
</svg>
