<?xml version="1.0" encoding="utf-8"?>
<!-- Generator: Adobe Illustrator 25.0.1, SVG Export Plug-In . SVG Version: 6.00 Build 0)  -->
<svg version="1.1" id="Capa_1" xmlns="http://www.w3.org/2000/svg" xmlns:xlink="http://www.w3.org/1999/xlink" x="0px" y="0px"
	 viewBox="0 0 1920 301.3" style="enable-background:new 0 0 1920 301.3;" xml:space="preserve">
<style type="text/css">
	.st0{fill:#FFFFFF;}
</style>
<g>
	<path class="st0" d="M500.6,301.3h-94.7v-43.9H124.4l-21.1,43.9H0L150.6,0h349.9V301.3z M405.9,174.7V83.1h-198L164,174.7H405.9z"
		/>
	<path class="st0" d="M943.9,204.9c0,52.9-37.9,96.4-108.5,96.4H548.3v-82.2h287.1c7.3,0,13.3-6.5,13.3-13.8s-6-12.9-13.3-12.9h-192
		c-70.6,0-108.5-43.9-108.5-97.3C535,42.2,572.9,0,643.4,0h287.1v82.2H643.4c-7.3,0-13.3,5.2-13.3,12.5s6,12.9,13.3,12.9h192
		C906,107.6,943.9,151.5,943.9,204.9z"/>
	<path class="st0" d="M1385,116.2c0,64.1-50.8,116.2-127.8,116.2H1073v68.9h-94.7V0h278.9C1334.2,0,1385,52.1,1385,116.2z
		 M1290.3,116.2c0-18.5-15.1-33.1-33.1-33.1H1073v66.3h184.2C1275.3,149.4,1290.3,134.7,1290.3,116.2z"/>
	<path class="st0" d="M1795.6,257.4h-281.5v43.9h-94.7V0h349.9L1920,301.3h-103.3L1795.6,257.4z M1756,174.7l-43.9-91.7h-198v91.7
		H1756z"/>
</g>
</svg>
