<?xml version="1.0" encoding="utf-8"?>
<!-- Generator: Adobe Illustrator 25.0.1, SVG Export Plug-In . SVG Version: 6.00 Build 0)  -->
<svg version="1.1" id="Capa_1" xmlns="http://www.w3.org/2000/svg" xmlns:xlink="http://www.w3.org/1999/xlink" x="0px" y="0px"
	 viewBox="0 0 1920 1080" style="enable-background:new 0 0 1920 1080;" xml:space="preserve">
<style type="text/css">
	.st0{fill:#FFFFFF;}
</style>
<g>
	<path class="st0" d="M500.56,690.64h-94.69v-43.9H124.39l-21.09,43.9H0l150.64-301.28h349.92V690.64z M405.87,564.1v-91.68H207.88
		l-43.9,91.68H405.87z"/>
	<path class="st0" d="M943.86,594.23c0,52.94-37.88,96.41-108.46,96.41H548.32v-82.21H835.4c7.32,0,13.34-6.46,13.34-13.77
		s-6.03-12.91-13.34-12.91H643.44c-70.59,0-108.46-43.9-108.46-97.27c0-52.94,37.88-95.12,108.46-95.12h287.08v82.21H643.44
		c-7.32,0-13.34,5.16-13.34,12.48s6.03,12.91,13.34,12.91H835.4C905.99,496.96,943.86,540.86,943.86,594.23z"/>
	<path class="st0" d="M1385.02,505.57c0,64.13-50.79,116.21-127.83,116.21h-184.21v68.86h-94.69V389.36h278.9
		C1334.23,389.36,1385.02,441.44,1385.02,505.57z M1290.33,505.57c0-18.51-15.06-33.14-33.14-33.14h-184.21v66.28h184.21
		C1275.27,538.71,1290.33,524.08,1290.33,505.57z"/>
	<path class="st0" d="M1795.61,646.74h-281.48v43.9h-94.69V389.36h349.92L1920,690.64h-103.3L1795.61,646.74z M1756.02,564.1
		l-43.9-91.68h-197.98v91.68H1756.02z"/>
</g>
</svg>
