<?xml version="1.0" encoding="utf-8"?>
<!-- Generator: Adobe Illustrator 25.0.1, SVG Export Plug-In . SVG Version: 6.00 Build 0)  -->
<svg version="1.1" id="Capa_1" xmlns="http://www.w3.org/2000/svg" xmlns:xlink="http://www.w3.org/1999/xlink" x="0px" y="0px"
	 viewBox="0 0 1920 1080" style="enable-background:new 0 0 1920 1080;" xml:space="preserve">
<style type="text/css">
	.st0{fill:#201E1E;}
</style>
<g>
	<path class="st0" d="M500.6,690.6h-94.7v-43.9H124.4l-21.1,43.9H0l150.6-301.3h349.9V690.6z M405.9,564.1v-91.7h-198L164,564.1
		H405.9z"/>
	<path class="st0" d="M943.9,594.2c0,52.9-37.9,96.4-108.5,96.4H548.3v-82.2h287.1c7.3,0,13.3-6.5,13.3-13.8s-6-12.9-13.3-12.9h-192
		c-70.6,0-108.5-43.9-108.5-97.3c0-52.9,37.9-95.1,108.5-95.1h287.1v82.2H643.4c-7.3,0-13.3,5.2-13.3,12.5s6,12.9,13.3,12.9h192
		C906,497,943.9,540.9,943.9,594.2z"/>
	<path class="st0" d="M1385,505.6c0,64.1-50.8,116.2-127.8,116.2H1073v68.9h-94.7V389.4h278.9C1334.2,389.4,1385,441.4,1385,505.6z
		 M1290.3,505.6c0-18.5-15.1-33.1-33.1-33.1H1073v66.3h184.2C1275.3,538.7,1290.3,524.1,1290.3,505.6z"/>
	<path class="st0" d="M1795.6,646.7h-281.5v43.9h-94.7V389.4h349.9L1920,690.6h-103.3L1795.6,646.7z M1756,564.1l-43.9-91.7h-198
		v91.7H1756z"/>
</g>
</svg>
